<svg t="1587464102852" class="icon" viewBox="0 0 1024 1024" version="1.1" xmlns="http://www.w3.org/2000/svg" p-id="1642" width="200" height="200"><path d="M514.112 32a272 272 0 0 1 269.696 237.568l17.472 0.064c28.032 0 52.352 19.2 58.88 46.528l150.336 632.96a60.48 60.48 0 0 1-58.88 74.496H76.544a60.48 60.48 0 0 1-58.88-74.432l150.4-633.024a60.48 60.48 0 0 1 58.88-46.528h17.408A272 272 0 0 1 514.112 32zM274.176 467.2a34.304 34.304 0 1 0 0 68.544 34.304 34.304 0 0 0 0-68.544z m478.976 0a34.24 34.24 0 1 0 0 68.544 34.24 34.24 0 0 0 0-68.544zM514.048 96a208 208 0 0 0-205.056 173.632h410.176A208 208 0 0 0 514.112 96z" p-id="1643"></path></svg>