<svg t="1587464127507" class="icon" viewBox="0 0 1024 1024" version="1.1" xmlns="http://www.w3.org/2000/svg" p-id="1930" width="200" height="200"><path d="M414.47619 560.761905a48.761905 48.761905 0 0 1 48.761905 48.761905v341.333333a48.761905 48.761905 0 0 1-48.761905 48.761905H73.142857a48.761905 48.761905 0 0 1-48.761905-48.761905v-341.333333a48.761905 48.761905 0 0 1 48.761905-48.761905h341.333333z m536.380953 0a48.761905 48.761905 0 0 1 48.761905 48.761905v341.333333a48.761905 48.761905 0 0 1-48.761905 48.761905h-341.333333a48.761905 48.761905 0 0 1-48.761905-48.761905v-341.333333a48.761905 48.761905 0 0 1 48.761905-48.761905h341.333333zM414.47619 24.380952a48.761905 48.761905 0 0 1 48.761905 48.761905v341.333333a48.761905 48.761905 0 0 1-48.761905 48.761905H73.142857a48.761905 48.761905 0 0 1-48.761905-48.761905v-341.333333a48.761905 48.761905 0 0 1 48.761905-48.761905h341.333333z m536.380953 0a48.761905 48.761905 0 0 1 48.761905 48.761905v341.333333a48.761905 48.761905 0 0 1-48.761905 48.761905h-341.333333a48.761905 48.761905 0 0 1-48.761905-48.761905v-341.333333a48.761905 48.761905 0 0 1 48.761905-48.761905h341.333333z" p-id="1931" fill="#d81e06"></path></svg>